<svg id="Huge-icon_user_outline_user" data-name="Huge-icon/user/outline/user" xmlns="http://www.w3.org/2000/svg" width="17.525" height="22" viewBox="0 0 17.525 22">
  <g id="Ellipse_255" data-name="Ellipse 255" transform="translate(0 12.41)" fill="none" stroke-linejoin="round" stroke-miterlimit="10">
    <path d="M15.829,4.795c0,.6-.507,1.366-1.849,2.035A12.021,12.021,0,0,1,8.763,7.9V9.59a13.7,13.7,0,0,0,5.976-1.246c1.522-.76,2.787-1.965,2.787-3.549ZM8.763,7.9A12.021,12.021,0,0,1,3.545,6.83C2.2,6.161,1.7,5.392,1.7,4.795H0C0,6.378,1.264,7.584,2.787,8.344A13.7,13.7,0,0,0,8.763,9.59ZM1.7,4.795c0-.6.507-1.366,1.849-2.035A12.021,12.021,0,0,1,8.763,1.692V0A13.7,13.7,0,0,0,2.787,1.246C1.264,2.005,0,3.211,0,4.795Zm7.067-3.1A12.021,12.021,0,0,1,13.98,2.76c1.342.67,1.849,1.438,1.849,2.035h1.7c0-1.584-1.265-2.789-2.787-3.549A13.7,13.7,0,0,0,8.763,0Z" stroke="none"/>
    <path d="M 8.762711524963379 1.9073486328125e-06 C 11.0513916015625 1.9073486328125e-06 13.16532135009766 0.4610319137573242 14.73854160308838 1.245891571044922 C 16.2608814239502 2.005441665649414 17.52542114257812 3.211301803588867 17.52542114257812 4.794871807098389 L 15.82941150665283 4.794871807098389 C 15.82941150665283 4.197621822357178 15.32219123840332 3.429131984710693 13.97997093200684 2.75953197479248 C 12.68863105773926 2.115242004394531 10.84519195556641 1.692311763763428 8.762711524963379 1.692311763763428 L 8.762711524963379 1.9073486328125e-06 Z M 8.762711524963379 1.9073486328125e-06 L 8.762711524963379 1.692311763763428 C 6.680231094360352 1.692311763763428 4.836811065673828 2.115242004394531 3.545401573181152 2.75953197479248 C 2.203271865844727 3.429131984710693 1.696011543273926 4.197621822357178 1.696011543273926 4.794871807098389 L 1.9073486328125e-06 4.794871807098389 C 1.9073486328125e-06 3.211301803588867 1.264501571655273 2.005441665649414 2.786921501159668 1.245891571044922 C 4.360081672668457 0.4610319137573242 6.474031448364258 1.9073486328125e-06 8.762711524963379 1.9073486328125e-06 Z M 1.9073486328125e-06 4.794871807098389 L 1.696011543273926 4.794871807098389 C 1.696011543273926 5.3921217918396 2.203271865844727 6.160612106323242 3.545401573181152 6.830211639404297 C 4.836811065673828 7.474501609802246 6.680231094360352 7.89743185043335 8.762711524963379 7.89743185043335 L 8.762711524963379 9.589741706848145 C 6.474021911621094 9.589741706848145 4.360081672668457 9.128711700439453 2.786921501159668 8.343852043151855 C 1.264501571655273 7.584301948547363 1.9073486328125e-06 6.37844181060791 1.9073486328125e-06 4.794871807098389 Z M 15.82941150665283 4.794871807098389 L 17.52542114257812 4.794871807098389 C 17.52542114257812 6.37844181060791 16.2608814239502 7.584301948547363 14.73854160308838 8.343852043151855 C 13.16532135009766 9.128711700439453 11.0513916015625 9.589741706848145 8.762711524963379 9.589741706848145 L 8.762711524963379 7.89743185043335 C 10.84519195556641 7.89743185043335 12.68863105773926 7.474501609802246 13.97997093200684 6.830211639404297 C 15.32219123840332 6.160612106323242 15.82941150665283 5.3921217918396 15.82941150665283 4.794871807098389 Z" stroke="none" fill="#051f4a"/>
  </g>
  <g id="Ellipse_257" data-name="Ellipse 257" transform="translate(3.392)" fill="none" stroke-linejoin="round" stroke-miterlimit="10">
    <path d="M9.045,5.359A3.671,3.671,0,0,1,5.371,9.026v1.692a5.365,5.365,0,0,0,5.371-5.359ZM5.371,9.026A3.671,3.671,0,0,1,1.7,5.359H0a5.365,5.365,0,0,0,5.371,5.359ZM1.7,5.359A3.671,3.671,0,0,1,5.371,1.692V0A5.365,5.365,0,0,0,0,5.359ZM5.371,1.692A3.671,3.671,0,0,1,9.045,5.359h1.7A5.365,5.365,0,0,0,5.371,0Z" stroke="none"/>
    <path d="M 5.370694160461426 3.814697265625e-06 C 8.336844444274902 3.814697265625e-06 10.74138450622559 2.399293899536133 10.74138450622559 5.358973979949951 L 9.045384407043457 5.358973979949951 C 9.045384407043457 3.333923816680908 7.400174140930176 1.692303657531738 5.370694160461426 1.692303657531738 L 5.370694160461426 3.814697265625e-06 Z M 5.370694160461426 3.814697265625e-06 L 5.370694160461426 1.692303657531738 C 3.341214179992676 1.692303657531738 1.696003913879395 3.333923816680908 1.696003913879395 5.358973979949951 L 3.814697265625e-06 5.358973979949951 C 3.814697265625e-06 2.399293899536133 2.404543876647949 3.814697265625e-06 5.370694160461426 3.814697265625e-06 Z M 3.814697265625e-06 5.358973979949951 L 1.696003913879395 5.358973979949951 C 1.696003913879395 7.384023666381836 3.341214179992676 9.025644302368164 5.370694160461426 9.025644302368164 L 5.370694160461426 10.71794414520264 C 2.404543876647949 10.71794414520264 3.814697265625e-06 8.31865406036377 3.814697265625e-06 5.358973979949951 Z M 9.045384407043457 5.358973979949951 L 10.74138450622559 5.358973979949951 C 10.74138450622559 8.31865406036377 8.336844444274902 10.71794414520264 5.370694160461426 10.71794414520264 L 5.370694160461426 9.025644302368164 C 7.400174140930176 9.025644302368164 9.045384407043457 7.384023666381836 9.045384407043457 5.358973979949951 Z" stroke="none" fill="#051f4a"/>
  </g>
</svg>
