<svg xmlns="http://www.w3.org/2000/svg" width="85.052" height="54" viewBox="0 0 85.052 54">
  <g id="icon" opacity="0.75">
    <path id="Caminho_112" data-name="Caminho 112" d="M11.1,43a.8.8,0,0,1-.8-.8V36.349H8.156A8.2,8.2,0,0,1,0,28.2V8.156A8.2,8.2,0,0,1,8.152,0H39.442A8.229,8.229,0,0,1,47.5,6.949a.8.8,0,0,1-1.588.239,6.611,6.611,0,0,0-6.477-5.583H8.154A6.588,6.588,0,0,0,1.605,8.158V28.193a6.586,6.586,0,0,0,6.553,6.55H11.1a.8.8,0,0,1,.8.8v4.712l5.281-5.28a.8.8,0,0,1,.567-.235h15.2a.8.8,0,0,1,0,1.605H18.081l-6.416,6.415A.8.8,0,0,1,11.1,43" fill="#087bc0"/>
    <path id="Caminho_113" data-name="Caminho 113" d="M82.34,55.744l-7.977-7.88H50.353a8.585,8.585,0,0,1-8.592-8.488V17.325a8.586,8.586,0,0,1,8.592-8.488H85.218a8.588,8.588,0,0,1,8.593,8.488V39.376a8.588,8.588,0,0,1-8.593,8.488H82.34ZM50.353,9.63a7.786,7.786,0,0,0-7.79,7.7v22.05a7.786,7.786,0,0,0,7.791,7.7H74.7l6.842,6.758V47.072h3.68a7.787,7.787,0,0,0,7.791-7.7V17.325a7.787,7.787,0,0,0-7.793-7.7Z" transform="translate(-9.16 -1.744)" fill="#087bc0"/>
    <path id="Caminho_114" data-name="Caminho 114" d="M81.84,55.478a.807.807,0,0,1-.567-.232L74.1,48.16H50.255a8.986,8.986,0,0,1-8.994-8.883V17.222a8.986,8.986,0,0,1,8.991-8.885h34.87a8.986,8.986,0,0,1,8.992,8.883V39.274A8.987,8.987,0,0,1,85.12,48.16H82.642v6.526a.792.792,0,0,1-.5.733.8.8,0,0,1-.307.06M50.255,9.923a7.386,7.386,0,0,0-7.388,7.3v22.05a7.386,7.386,0,0,0,7.391,7.3H74.431a.807.807,0,0,1,.567.232l6.039,5.965v-5.4a.8.8,0,0,1,.8-.793h3.279a7.386,7.386,0,0,0,7.39-7.3V17.222a7.387,7.387,0,0,0-7.389-7.3Z" transform="translate(-9.062 -1.645)" fill="#087bc0"/>
    <path id="Caminho_115" data-name="Caminho 115" d="M26.937,26.564a1.148,1.148,0,0,1,1.184,1.112c0,.015,0,.031,0,.047v.492a1.184,1.184,0,0,1-2.368.067c0-.022,0-.045,0-.067v-.492a1.148,1.148,0,0,1,1.136-1.16h.047m-.024-2.048a.69.69,0,0,1-.641-.666L26,21.088a.75.75,0,0,1,.63-.855.78.78,0,0,1,.085-.008c2.615-.2,4.267-1.357,4.267-3.427v-.049a3.28,3.28,0,0,0-3.6-3.207,5.346,5.346,0,0,0-4.069,1.925,1.024,1.024,0,0,1-.665.27.866.866,0,0,1-.888-.842v-.022a.957.957,0,0,1,.3-.665,6.928,6.928,0,0,1,5.375-2.418c3.329,0,5.524,2.072,5.524,4.883v.049c0,3.083-2.318,4.611-5.13,5.007l-.172,2.12a.674.674,0,0,1-.641.666Z" transform="translate(-4.509 -2.476)" fill="#087bc0"/>
    <path id="Caminho_116" data-name="Caminho 116" d="M70.232,41.624H54.56a.4.4,0,0,1,0-.8H70.232a.4.4,0,1,1,0,.8m15.746-6.7H54.56a.4.4,0,1,1,0-.8H85.978a.4.4,0,0,1,0,.8m0-6.7H54.56a.4.4,0,1,1,0-.8H85.978a.4.4,0,0,1,0,.8m0-7.437H54.56a.4.4,0,1,1,0-.8H85.978a.4.4,0,0,1,0,.8" transform="translate(-11.607 -4.227)" fill="#087bc0"/>
  </g>
</svg>
