<svg xmlns="http://www.w3.org/2000/svg" width="42.385" height="49.3" viewBox="0 0 42.385 49.3">
  <g id="guide" transform="translate(0.65 0.65)" opacity="0.75">
    <path id="Caminho_262" data-name="Caminho 262" d="M34.692,10c-1.2-.4-5.687,2.855-10.079,7.132-4.618,4.5-7.812,8.783-7.4,9.872a.4.4,0,0,0,.081.136c2.541,2.6,10.019,2.422,14.857-2.291s4.609-10.385,2.8-14.613A.413.413,0,0,0,34.692,10Z" transform="translate(-5.99 -3.767)" fill="none" stroke="#087bc0" stroke-linecap="round" stroke-linejoin="round" stroke-width="0.8"/>
    <path id="Caminho_263" data-name="Caminho 263" d="M17.229,27.083a51.113,51.113,0,0,0,6.2-4A46.535,46.535,0,0,0,34.653,10.213" transform="translate(-6.004 -3.841)" fill="none" stroke="#087bc0" stroke-linecap="round" stroke-linejoin="round" stroke-width="0.8"/>
    <path id="Caminho_264" data-name="Caminho 264" d="M36.418,25.974c2.955-3.013,4.153-6.062,3.77-9.529" transform="translate(-11.925 -5.763)" fill="none" stroke="#087bc0" stroke-linecap="round" stroke-linejoin="round" stroke-width="0.8"/>
    <rect id="Retângulo_283" data-name="Retângulo 283" width="41.085" height="48" rx="5" fill="none" stroke="#087bc0" stroke-linecap="round" stroke-linejoin="round" stroke-width="1.3"/>
    <line id="Linha_58" data-name="Linha 58" x1="30.604" transform="translate(5.24 30.687)" fill="none" stroke="#087bc0" stroke-linecap="round" stroke-linejoin="round" stroke-width="0.8"/>
    <line id="Linha_59" data-name="Linha 59" x1="30.604" transform="translate(5.24 35.203)" fill="none" stroke="#087bc0" stroke-linecap="round" stroke-linejoin="round" stroke-width="0.8"/>
    <line id="Linha_60" data-name="Linha 60" x1="14.696" transform="translate(5.24 39.719)" fill="none" stroke="#087bc0" stroke-linecap="round" stroke-linejoin="round" stroke-width="0.8"/>
  </g>
</svg>
