<svg id="Grupo_1048" data-name="Grupo 1048" xmlns="http://www.w3.org/2000/svg" width="44.146" height="48" viewBox="0 0 44.146 48">
  <path id="Caminho_117" data-name="Caminho 117" d="M6,51.67a.32.32,0,0,1-.218-.554L21.855,36.187a.321.321,0,0,1,.415-.017.313.313,0,0,1,.084.065l13.7,14.743a.32.32,0,1,1-.469.436L22.066,36.865,6.222,51.585A.317.317,0,0,1,6,51.67M42.714,48.5a.321.321,0,0,1-.235-.1L27.09,31.836a.33.33,0,0,1-.071-.121.32.32,0,0,1,.065-.385L43.473,16.1a.32.32,0,1,1,.435.469L27.739,31.594l15.209,16.37a.32.32,0,0,1-.234.538M.825,46.739a.32.32,0,0,1-.218-.554L18.321,29.727a.32.32,0,0,1,.435.469L1.042,46.654a.319.319,0,0,1-.218.085M32.565,17.25a.32.32,0,0,1-.218-.554l5.946-5.524a.32.32,0,1,1,.436.469l-5.946,5.524a.317.317,0,0,1-.218.086" transform="translate(-0.182 -3.989)" fill="#087bc0"/>
  <path id="Caminho_118" data-name="Caminho 118" d="M36.887,51.568H7.264A7.3,7.3,0,0,1,0,44.308V17.177A7.3,7.3,0,0,1,7.262,9.914h5.3v1.28H7.264A6.017,6.017,0,0,0,1.28,17.179V44.306a6.015,6.015,0,0,0,5.985,5.981H36.885A6.014,6.014,0,0,0,42.866,44.3V17.178a6.015,6.015,0,0,0-5.983-5.983h-4.95V9.915h4.952a7.3,7.3,0,0,1,7.262,7.261v27.13a7.3,7.3,0,0,1-7.26,7.262" transform="translate(0 -3.568)" fill="#087bc0"/>
  <path id="Caminho_119" data-name="Caminho 119" d="M28.327,30.195c-2.915,0-8.821-11.015-10.227-15.339a10.7,10.7,0,0,1-.688-3.064l-.028-.49.636-.117-.639.032,0-.266a10.95,10.95,0,0,1,21.9,0V11.1a2.342,2.342,0,0,1-.01.248l-.028.469a10.877,10.877,0,0,1-.653,2.96,45.514,45.514,0,0,1-4.73,9.715c-3.178,5.05-4.624,5.7-5.529,5.7v-1.28c.29,0,1.468-.369,4.45-5.106a44.328,44.328,0,0,0,4.605-9.461,9.669,9.669,0,0,0,.581-2.625l.028-.469A1.321,1.321,0,0,0,38,11.1v-.151a9.67,9.67,0,1,0-19.34,0l.031.744a9.52,9.52,0,0,0,.617,2.731c1.9,5.847,7.538,14.488,9.021,14.488Z" transform="translate(-6.253)" fill="#087bc0"/>
  <path id="Caminho_120" data-name="Caminho 120" d="M31.641,19.191a4.767,4.767,0,0,1,0-9.534,4.027,4.027,0,0,1,2.911,1.066l-.869.94a2.748,2.748,0,0,0-2.009-.727,3.488,3.488,0,1,0-.03,6.975h0a3.487,3.487,0,0,0,3.484-3.489,1.511,1.511,0,0,0-.12-.72l1.17-.52a2.718,2.718,0,0,1,.229,1.277,4.763,4.763,0,0,1-4.763,4.733Z" transform="translate(-9.671 -3.473)" fill="#087bc0"/>
  <path id="Caminho_121" data-name="Caminho 121" d="M38.367,14.781a1.848,1.848,0,0,1,0-3.7h.013a1.842,1.842,0,0,1,1.838,1.827v.019a1.851,1.851,0,0,1-1.846,1.851Zm.008-3.056h-.009a1.208,1.208,0,1,0,0,2.416h0a1.21,1.21,0,0,0,1.207-1.21v-.017a1.2,1.2,0,0,0-1.2-1.189" transform="translate(-13.141 -3.989)" fill="#087bc0"/>
</svg>
