<svg xmlns="http://www.w3.org/2000/svg" width="358" height="184" viewBox="0 0 358 184">
  <g id="Grupo_2483" data-name="Grupo 2483" transform="translate(20745 10055)">
    <g id="Subtração_16" data-name="Subtração 16" transform="translate(-20745 -10055)" fill="#fff">
      <path d="M127.553,184H16A16,16,0,0,1,0,168V16A16,16,0,0,1,16,0H128.33a16.986,16.986,0,0,0,16.812,15.7A16.987,16.987,0,0,0,161.955,0H342a16,16,0,0,1,16,16V168a16,16,0,0,1-16,16H161a16.847,16.847,0,0,0-33.45,0Z" stroke="none"/>
      <path d="M 126.6933517456055 182.9996032714844 C 128.1969451904297 174.4872894287109 135.6067199707031 168.1739196777344 144.2781066894531 168.1739196777344 C 152.9488067626953 168.1739196777344 160.3582458496094 174.4872894287109 161.8626556396484 182.9987030029297 L 342.0000305175781 182.9987030029297 C 346.0065612792969 182.9987030029297 349.7733764648438 181.4384613037109 352.6065979003906 178.6054229736328 C 355.4398193359375 175.7722930908203 357.0001831054688 172.0053253173828 357.0001831054688 167.9985198974609 L 357.0001831054688 16.00024032592773 C 357.0001831054688 11.99374103546143 355.4398193359375 8.226922988891602 352.6065979003906 5.393604755401611 C 349.7732543945312 2.56033182144165 346.0064392089844 0.9999681711196899 342.0000305175781 0.9999681711196899 L 162.8587646484375 1.000013470649719 C 161.7263031005859 9.874208450317383 154.1166687011719 16.69692230224609 145.1421051025391 16.69692230224609 C 136.1680297851562 16.69692230224609 128.5587463378906 9.874166488647461 127.4263153076172 0.9999681711196899 L 16.00019836425781 0.9999681711196899 C 11.9934253692627 0.9999681711196899 8.226515769958496 2.56033182144165 5.393333911895752 5.393604755401611 C 2.560243129730225 8.226786613464355 1.00001585483551 11.99365043640137 1.00001585483551 16.00024032592773 L 1.00001585483551 167.9985198974609 C 1.00001585483551 172.0054626464844 2.560243129730225 175.7723846435547 5.393288612365723 178.60546875 C 8.22637939453125 181.4384613037109 11.99328899383545 182.9987030029297 16.00019836425781 182.9987030029297 L 126.6933517456055 182.9996032714844 M 127.5528335571289 183.9996032714844 L 16.00019836425781 183.9987030029297 C 11.72619819641113 183.9987030029297 7.708152294158936 182.33447265625 4.686197757720947 179.3125610351562 C 1.664288640022278 176.2906494140625 1.590243300597649e-05 172.2725524902344 1.590243300597649e-05 167.9985198974609 L 1.590243300597649e-05 16.00024032592773 C 1.590243300597649e-05 11.72651386260986 1.664288640022278 7.708559036254883 4.686197757720947 4.686513423919678 C 7.708243370056152 1.664377331733704 11.72628879547119 -3.180486601195298e-05 16.00019836425781 -3.180486601195298e-05 L 128.3296966552734 -3.180486601195298e-05 C 128.9938354492188 8.802422523498535 136.3782958984375 15.69692230224609 145.1421051025391 15.69692230224609 C 153.9060211181641 15.69692230224609 161.2912902832031 8.802013397216797 161.9553833007812 1.364968011330348e-05 L 342.0000305175781 -3.180486601195298e-05 C 346.2735595703125 -3.180486601195298e-05 350.29150390625 1.664377331733704 353.3136901855469 4.686513423919678 C 356.3358459472656 7.708695411682129 358.0001831054688 11.72665023803711 358.0001831054688 16.00024032592773 L 358.0001831054688 167.9985198974609 C 358.0001831054688 172.2724609375 356.3358459472656 176.2905120849609 353.3136901855469 179.3125610351562 C 350.2915954589844 182.33447265625 346.2737121582031 183.9987030029297 342.0000305175781 183.9987030029297 L 161.0032043457031 183.9987030029297 C 159.9310150146484 175.5468292236328 152.7412414550781 169.1739196777344 144.2781066894531 169.1739196777344 C 135.8152008056641 169.1739196777344 128.6249694824219 175.5471954345703 127.5529708862305 183.9987335205078 L 127.5528335571289 183.9996032714844 Z" stroke="none" fill="rgba(8,123,192,0.25)"/>
    </g>
    <path id="Caminho_388" data-name="Caminho 388" d="M0,0V124" transform="translate(-20599.5 -10025)" fill="none" stroke="#3396d0" stroke-width="1" stroke-dasharray="5"/>
    <g id="Grupo_2096" data-name="Grupo 2096" transform="translate(-2792 -17474)" opacity="0">
      <g id="Interseção_1" data-name="Interseção 1" transform="translate(-17958 7414)" fill="#f7fbfd">
        <path d="M132.552,189H21A16,16,0,0,1,5,173V21A16,16,0,0,1,21,5H133.33a16.986,16.986,0,0,0,16.813,15.7c.287,0,.574-.008.858-.022V174.263a16.742,16.742,0,0,0-1.722-.089A16.935,16.935,0,0,0,132.553,189h0Z" stroke="none"/>
        <path d="M 131.6932678222656 188 C 133.1967315673828 179.4877014160156 140.6067047119141 173.1743011474609 149.2785186767578 173.1743011474609 C 149.5184478759766 173.1743011474609 149.7593688964844 173.1792297363281 150.0001983642578 173.1890258789062 L 150.0001983642578 21.69672012329102 C 141.0880737304688 21.62486839294434 133.5527648925781 14.82750129699707 132.4262542724609 6.000388622283936 L 21.00060653686523 6.000388622283936 C 16.9932975769043 6.000388622283936 13.22605991363525 7.560674667358398 10.39301204681396 10.39369869232178 C 7.5603928565979 13.22719860076904 6.000392913818359 16.99412727355957 6.000392913818359 21.00060272216797 L 6.000392913818359 172.9989166259766 C 6.000392913818359 177.0053863525391 7.5603928565979 180.7723236083984 10.39279747009277 183.6056060791016 C 13.22686862945557 186.4387969970703 16.99410629272461 187.9990997314453 21.00060653686523 187.9990997314453 L 131.6932678222656 188 M 132.5529174804688 189.0000152587891 L 21.00060653686523 188.9990997314453 C 16.72651100158691 188.9990997314453 12.70801162719727 187.3341064453125 9.685797691345215 184.3128204345703 C 6.664511680603027 181.2906036376953 5.000392913818359 177.2721099853516 5.000392913818359 172.9989166259766 L 5.000392913818359 21.00060272216797 C 5.000392913818359 16.72650718688965 6.664511680603027 12.70891284942627 9.685797691345215 9.686697959899902 C 12.70801162719727 6.664507865905762 16.72651100158691 5.000388622283936 21.00060653686523 5.000388622283936 L 133.3296051025391 5.000388622283936 C 133.9938049316406 13.80241298675537 141.3782958984375 20.69729423522949 150.1425170898438 20.69729423522949 C 150.4297332763672 20.69729423522949 150.7161254882812 20.68979454040527 151.0001983642578 20.67514991760254 L 151.0001983642578 174.2629089355469 C 150.4331817626953 174.2043151855469 149.8590850830078 174.1743011474609 149.2785186767578 174.1743011474609 C 140.8149108886719 174.1743011474609 133.6248016357422 180.5472259521484 132.5529174804688 188.9990997314453 L 132.5529174804688 189.0000152587891 Z" stroke="none" fill="rgba(8,123,192,0.25)"/>
      </g>
      <g id="Grupo_2095" data-name="Grupo 2095">
        <text id="_25_" data-name="25%" transform="translate(-17908 7545.201)" fill="#087bc0" font-size="27" font-family="SegoeUI, Segoe UI"><tspan x="0" y="0">25%</tspan></text>
        <g id="Grupo_2094" data-name="Grupo 2094">
          <g id="Grupo_2074" data-name="Grupo 2074" transform="translate(-17911.961 7470.899)">
            <text id="Voucher" transform="translate(31.961 14)" fill="#087bc0" font-size="18" font-family="SegoeUI, Segoe UI"><tspan x="-32.471" y="0">Voucher</tspan></text>
            <text id="resgatado_com_sucesso" data-name="resgatado com
sucesso" transform="translate(30 26.363)" fill="#087bc0" font-size="10" font-family="SegoeUI, Segoe UI"><tspan x="-32.991" y="0">resgatado com</tspan><tspan x="-17.048" y="12">sucesso</tspan></text>
          </g>
          <g id="Grupo_2075" data-name="Grupo 2075" transform="translate(-17894 7434)">
            <g id="Elipse_58" data-name="Elipse 58" fill="#1fba24" stroke="rgba(8,123,192,0.25)" stroke-width="1">
              <circle cx="14.469" cy="14.469" r="14.469" stroke="none"/>
              <circle cx="14.469" cy="14.469" r="13.969" fill="none"/>
            </g>
            <path id="Caminho_295" data-name="Caminho 295" d="M8.051,14.306,5.218,11.473a.814.814,0,1,0-1.151,1.151L7.48,16.038a.813.813,0,0,0,1.151,0l8.64-8.64A.814.814,0,0,0,16.12,6.246Z" transform="translate(3.943 3.593)" fill="#fff"/>
          </g>
        </g>
        <text id="agora_vá_até_uma_ótica_parceira_e_aproveite_seu_desconto_" data-name="agora vá até uma ótica
parceira e aproveite
seu desconto!" transform="translate(-17880 7562.408)" fill="#087bc0" font-size="10" font-family="SegoeUI, Segoe UI"><tspan x="-50.339" y="0">agora vá até uma ótica</tspan><tspan x="-43.674" y="12">parceira e aproveite</tspan><tspan x="-30.73" y="24">seu desconto!</tspan></text>
      </g>
    </g>
    <g id="Grupo_2098" data-name="Grupo 2098" transform="translate(-2792 -17474)">
      <path id="Interseção_2" data-name="Interseção 2" d="M130.8,187H21A16,16,0,0,1,5,171V21A16,16,0,0,1,21,5h110.57a16.774,16.774,0,0,0,16.583,15.526c.283,0,.566-.007.846-.022v151.92a16.466,16.466,0,0,0-1.7-.088A16.722,16.722,0,0,0,130.805,187h0Z" transform="translate(-17957 7415)" fill="#fff"/>
    </g>
  </g>
</svg>
