<svg xmlns="http://www.w3.org/2000/svg" width="358" height="184.001" viewBox="0 0 358 184.001">
  <g id="Grupo_2484" data-name="Grupo 2484" transform="translate(22039.9 9925)">
    <g id="Subtração_20" data-name="Subtração 20" transform="translate(-22039.9 -9925)" fill="#fff">
      <path d="M127.553,184H16A16,16,0,0,1,0,168V16A16,16,0,0,1,16,0H128.329a17,17,0,0,0,5.327,11.141A16.728,16.728,0,0,0,145.142,15.7a16.728,16.728,0,0,0,11.487-4.556A17,17,0,0,0,161.955,0H342a16,16,0,0,1,16,16V168a16,16,0,0,1-16,16H161a17.024,17.024,0,0,0-5.542-10.548,16.758,16.758,0,0,0-22.365,0A17.025,17.025,0,0,0,127.553,184Z" stroke="none"/>
      <path d="M 126.6935195922852 183.0005187988281 C 127.395881652832 179.0328216552734 129.4113006591797 175.4039611816406 132.4288787841797 172.7058868408203 C 135.6968841552734 169.7839813232422 139.9050140380859 168.1748046875 144.2781066894531 168.1748046875 C 148.6508331298828 168.1748046875 152.8587036132812 169.7839813232422 156.1265563964844 172.7058868408203 C 159.1438598632812 175.4037933349609 161.1591491699219 179.0322723388672 161.8616333007812 182.9996643066406 L 342.0000305175781 182.9996643066406 C 346.0064697265625 182.9996643066406 349.7732849121094 181.4393005371094 352.6065979003906 178.6060638427734 C 355.4398193359375 175.7727508544922 357.0001831054688 172.0059356689453 357.0001831054688 167.9994354248047 L 357.0001831054688 16.00020599365234 C 357.0001831054688 11.99375152587891 355.4398193359375 8.226933479309082 352.6065979003906 5.393615245819092 C 349.7733459472656 2.560388088226318 346.0065307617188 1.000024437904358 342.0000305175781 1.000024437904358 L 162.8590240478516 1.000024437904358 C 162.3310546875 5.157163619995117 160.3832397460938 8.988182067871094 157.3135223388672 11.87011528015137 C 153.9980163574219 14.98275184631348 149.6754760742188 16.69693374633789 145.1421051025391 16.69693374633789 C 140.6091003417969 16.69693374633789 136.2866516113281 14.98275184631348 132.9710083007812 11.87011528015137 C 129.9012145996094 8.988182067871094 127.9532775878906 5.157195091247559 127.4252090454102 1.000024437904358 L 16.00019836425781 1.000024437904358 C 11.99337959289551 1.000024437904358 8.226425170898438 2.560342788696289 5.393333911895752 5.393615245819092 C 2.560243129730225 8.226797103881836 1.00001585483551 11.99361515045166 1.00001585483551 16.00020599365234 L 1.00001585483551 167.9994354248047 C 1.00001585483551 172.0060272216797 2.560243129730225 175.7728881835938 5.393333911895752 178.6060638427734 C 8.226469993591309 181.4393005371094 11.9934253692627 182.9996643066406 16.00019836425781 182.9996643066406 L 126.6935195922852 183.0005187988281 M 127.5528335571289 184.0005187988281 L 16.00019836425781 183.9996643066406 C 11.72628879547119 183.9996643066406 7.708243370056152 182.3352966308594 4.686197757720947 179.3131561279297 C 1.664288640022278 176.2911224365234 1.590243300597649e-05 172.2731628417969 1.590243300597649e-05 167.9994354248047 L 1.590243300597649e-05 16.00020599365234 C 1.590243300597649e-05 11.72652435302734 1.664288640022278 7.708570003509521 4.686197757720947 4.686524391174316 C 7.708197593688965 1.664388179779053 11.726243019104 2.449729254294652e-05 16.00019836425781 2.449729254294652e-05 L 128.3288269042969 2.449729254294652e-05 C 128.6504211425781 4.26161527633667 130.541748046875 8.217887878417969 133.6554718017578 11.14107036590576 C 136.7850189208984 14.0789794921875 140.8643798828125 15.69693374633789 145.1421051025391 15.69693374633789 C 149.4201965332031 15.69693374633789 153.4996490478516 14.0789794921875 156.6290588378906 11.14107036590576 C 159.7422485351562 8.218297004699707 161.6338806152344 4.261661052703857 161.9553833007812 2.449729254294652e-05 L 342.0000305175781 2.449729254294652e-05 C 346.2736511230469 2.449729254294652e-05 350.2915649414062 1.664388179779053 353.3136901855469 4.686524391174316 C 356.3358459472656 7.708706378936768 358.0001831054688 11.7266149520874 358.0001831054688 16.00020599365234 L 358.0001831054688 167.9994354248047 C 358.0001831054688 172.2730255126953 356.3358459472656 176.2909851074219 353.3136901855469 179.3131561279297 C 350.29150390625 182.3352966308594 346.2736206054688 183.9996643066406 342.0000305175781 183.9996643066406 L 161.0023345947266 183.9996643066406 C 160.4863739013672 179.9317932128906 158.5184326171875 176.1859741210938 155.4600219726562 173.4513397216797 C 152.3757476806641 170.6935729980469 148.4046020507812 169.1748046875 144.2781066894531 169.1748046875 C 140.1512451171875 169.1748046875 136.1798400878906 170.6935729980469 133.0954284667969 173.4513397216797 C 130.0372924804688 176.1856536865234 128.0689239501953 179.9317474365234 127.5529708862305 183.9996643066406 L 127.5528335571289 184.0005187988281 Z" stroke="none" fill="rgba(8,123,192,0.25)"/>
    </g>
    <path id="Caminho_422" data-name="Caminho 422" d="M0,0V124" transform="translate(-21894.4 -9895)" fill="none" stroke="#3396d0" stroke-width="1" stroke-dasharray="5"/>
    <g id="Grupo_2483" data-name="Grupo 2483" transform="translate(-22039.9 -9925)">
      <g id="Interseção_1" data-name="Interseção 1" transform="translate(0 0)" fill="#f7fbfd">
        <path d="M127.552,184H16A16,16,0,0,1,0,168V16A16,16,0,0,1,16,0H128.329a17,17,0,0,0,5.326,11.141A16.725,16.725,0,0,0,145.142,15.7q.43,0,.858-.022V169.263a16.763,16.763,0,0,0-12.905,4.188A17.024,17.024,0,0,0,127.553,184Z" stroke="none"/>
        <path d="M 126.6931381225586 183.0005187988281 C 127.3954391479492 179.0326385498047 129.4107360839844 175.4038848876953 132.4282989501953 172.7060394287109 C 135.6974182128906 169.7840118408203 139.9057769775391 168.1748046875 144.2781219482422 168.1748046875 C 144.5179595947266 168.1748046875 144.7588958740234 168.1797332763672 144.9998016357422 168.1895294189453 L 144.9998016357422 16.69633102416992 C 140.5175628662109 16.66095542907715 136.2509918212891 14.95021820068359 132.9709014892578 11.87010860443115 C 129.9011688232422 8.987637519836426 127.9533843994141 5.156267166137695 127.425537109375 1.000013709068298 L 16.00020980834961 1.000013709068298 C 11.99344825744629 1.000013709068298 8.226234436035156 2.560608863830566 5.39261531829834 5.394204139709473 C 2.559996128082275 8.227704048156738 0.9999960660934448 11.99432277679443 0.9999960660934448 16.00020408630371 L 0.9999960660934448 167.9994201660156 C 0.9999960660934448 172.0058898925781 2.559996128082275 175.7728271484375 5.392496109008789 178.606201171875 C 8.226234436035156 181.4399108886719 11.99344825744629 183.0005187988281 16.00020980834961 183.0005187988281 L 126.6931381225586 183.0005187988281 M 127.5525207519531 184.0005187988281 L 16.00020980834961 184.0005187988281 C 11.72611522674561 184.0005187988281 7.707614898681641 182.3355102539062 4.68540096282959 179.3133239746094 C 1.664115071296692 176.2911071777344 -3.944033778680023e-06 172.2734832763672 -3.944033778680023e-06 167.9994201660156 L -3.944033778680023e-06 16.00020408630371 C -3.944033778680023e-06 11.72698974609375 1.664115071296692 7.709418296813965 4.68540096282959 4.687204360961914 C 7.707614898681641 1.665013670921326 11.72611522674561 1.367478125757771e-05 16.00020980834961 1.367478125757771e-05 L 128.3292083740234 1.367478125757771e-05 C 128.6504974365234 4.262394428253174 130.5423126220703 8.217894554138184 133.6554260253906 11.14110851287842 C 136.7847137451172 14.07960891723633 140.8644256591797 15.69689464569092 145.1421203613281 15.69689464569092 C 145.4290466308594 15.69689464569092 145.7148742675781 15.68956089019775 145.9998016357422 15.67510890960693 L 145.9998016357422 169.2633514404297 C 145.4304046630859 169.2046051025391 144.8556213378906 169.1748046875 144.2781219482422 169.1748046875 C 140.1507110595703 169.1748046875 136.1799011230469 170.6940155029297 133.0947113037109 173.4516143798828 C 130.0364990234375 176.1858062744141 128.0682067871094 179.9325103759766 127.5525207519531 184.0005187988281 Z" stroke="none" fill="rgba(8,123,192,0.25)"/>
      </g>
    </g>
  </g>
</svg>
